<svg width="24" height="24" viewBox="0 0 24 24" fill="none" xmlns="http://www.w3.org/2000/svg">
<path d="M12 14.121L9.68299 16.438C10.0454 17.2926 10.0993 18.2467 9.83537 19.1367C9.57148 20.0267 9.00626 20.7972 8.23657 21.3161C7.46689 21.8351 6.54067 22.0702 5.61666 21.9811C4.69265 21.8921 3.82838 21.4844 3.17198 20.828C2.51557 20.1716 2.10791 19.3073 2.01885 18.3833C1.9298 17.4593 2.16489 16.5331 2.68385 15.7634C3.2028 14.9937 3.9733 14.4285 4.8633 14.1646C5.75329 13.9007 6.70736 13.9546 7.56199 14.317L9.87999 12L4.20999 6.333C4.02419 6.14727 3.8768 5.92675 3.77624 5.68405C3.67568 5.44135 3.62392 5.18121 3.62392 4.9185C3.62392 4.65579 3.67568 4.39565 3.77624 4.15294C3.8768 3.91024 4.02419 3.68972 4.20999 3.504L4.91799 2.797L12 9.88L19.081 2.798L19.789 3.505C19.9748 3.69072 20.1222 3.91124 20.2227 4.15394C20.3233 4.39665 20.3751 4.65679 20.3751 4.9195C20.3751 5.18221 20.3233 5.44235 20.2227 5.68505C20.1222 5.92775 19.9748 6.14827 19.789 6.334L14.12 12L16.437 14.317C17.2916 13.9546 18.2457 13.9007 19.1357 14.1646C20.0257 14.4285 20.7962 14.9937 21.3151 15.7634C21.8341 16.5331 22.0692 17.4593 21.9801 18.3833C21.8911 19.3073 21.4834 20.1716 20.827 20.828C20.1706 21.4844 19.3063 21.8921 18.3823 21.9811C17.4583 22.0702 16.5321 21.8351 15.7624 21.3161C14.9927 20.7972 14.4275 20.0267 14.1636 19.1367C13.8997 18.2467 13.9536 17.2926 14.316 16.438L12 14.12V14.121ZM5.99999 20C6.53042 20 7.03913 19.7893 7.4142 19.4142C7.78928 19.0391 7.99999 18.5304 7.99999 18C7.99999 17.4696 7.78928 16.9609 7.4142 16.5858C7.03913 16.2107 6.53042 16 5.99999 16C5.46956 16 4.96085 16.2107 4.58578 16.5858C4.2107 16.9609 3.99999 17.4696 3.99999 18C3.99999 18.5304 4.2107 19.0391 4.58578 19.4142C4.96085 19.7893 5.46956 20 5.99999 20ZM18 20C18.5304 20 19.0391 19.7893 19.4142 19.4142C19.7893 19.0391 20 18.5304 20 18C20 17.4696 19.7893 16.9609 19.4142 16.5858C19.0391 16.2107 18.5304 16 18 16C17.4696 16 16.9608 16.2107 16.5858 16.5858C16.2107 16.9609 16 17.4696 16 18C16 18.5304 16.2107 19.0391 16.5858 19.4142C16.9608 19.7893 17.4696 20 18 20Z" fill="black"/>
</svg>
